<?xml version="1.0" encoding="utf-8"?>
<!-- Generator: Adobe Illustrator 24.0.2, SVG Export Plug-In . SVG Version: 6.00 Build 0)  -->
<svg version="1.1" id="Camada_1" xmlns="http://www.w3.org/2000/svg" xmlns:xlink="http://www.w3.org/1999/xlink" x="0px" y="0px"
	 viewBox="0 0 1200 1200" style="enable-background:new 0 0 1200 1200;" xml:space="preserve">
<style type="text/css">
	.st0{fill:url(#SVGID_1_);}
	.st1{opacity:0.2;}
	.st2{fill:#FF0C00;}
	.st3{opacity:0.2;fill:#FFFFFF;}
	.st4{fill:#FAFAFA;}
	.st5{font-family:'ScriptoramaTradeshowJF';}
	.st6{font-size:205.3486px;}
	.st7{fill:#FFFFFF;}
	.st8{font-family:'MyriadPro-Regular';}
	.st9{font-size:136.7376px;}
	.st10{letter-spacing:13;}
	.st11{fill:#FFAC00;}
	.st12{font-family:'Cambria-Italic';}
	.st13{font-size:52.012px;}
</style>
<g>
	<g>
		<linearGradient id="SVGID_1_" gradientUnits="userSpaceOnUse" x1="97.1877" y1="498.3068" x2="1080.9989" y2="498.3068">
			<stop  offset="0" style="stop-color:#0056A9"/>
			<stop  offset="1" style="stop-color:#007EEF"/>
		</linearGradient>
		<path class="st0" d="M1045.62,654.78H200.56c-68.02,0-113.45-55.15-101.45-123.17l33.46-189.77h845.06
			c68.02,0,113.45,55.15,101.45,123.17L1045.62,654.78z"/>
		<path class="st1" d="M957,341.84H667.29c68.02,0,113.45,55.15,101.45,123.17l-33.46,189.77h289.71l33.46-189.77
			C1070.45,396.98,1025.03,341.84,957,341.84z"/>
		<path class="st2" d="M977.63,341.84H687.91c68.03,0,113.45,55.15,101.45,123.17L755.9,654.78h289.71l33.46-189.77
			C1091.07,396.98,1045.65,341.84,977.63,341.84z"/>
		<path class="st3" d="M995.48,363.16c-5.91,7.98-11.57,16.09-17.15,24.22c42.44,8.01,75.11,42.78,80.66,92.59
			C1068.58,425.61,1041.48,379.5,995.48,363.16z"/>
		<path class="st3" d="M820.21,341.84h-59.75c68.02,0,113.45,55.15,101.45,123.17l-33.46,189.77h59.75l33.46-189.77
			C933.65,396.98,888.23,341.84,820.21,341.84z"/>
		<path class="st3" d="M863.83,341.84h-21.81c68.02,0,113.45,55.15,101.45,123.17l-33.46,189.77h21.81l33.46-189.77
			C977.28,396.98,931.85,341.84,863.83,341.84z"/>
		<text transform="matrix(0.9848 0 -0.1736 0.9848 110.9226 556.0777)" class="st4 st5 st6">Ma.Ma.</text>
		<path class="st7" d="M1007.03,481.3L895.47,409.6c-16.53-10.62-38.54-0.99-41.95,18.36l-25.29,143.41
			c-3.96,22.49,19.62,39.73,39.84,29.13l136.84-71.71C1023.6,519,1024.76,492.7,1007.03,481.3z"/>
		<path class="st1" d="M890.14,418.49l111.55,71.71c11.57,7.44,15.04,21.2,10.91,32.59c10.82-12,9.26-31.94-5.58-41.48L895.47,409.6
			c-15.12-9.72-34.79-2.45-40.65,13.67C863.41,413.75,878.19,410.81,890.14,418.49z"/>
		<text transform="matrix(1 0 -0.1736 0.9848 307.5585 779.4044)" class="st8 st9 st10">L.I.V.E</text>
		<g>
			<polygon class="st11" points="830.98,776.94 846.37,776.94 862.35,686.32 846.96,686.32 			"/>
			<polygon class="st11" points="863.17,776.94 880.78,776.94 896.76,686.32 879.15,686.32 			"/>
			<polygon class="st11" points="798.79,776.94 811.96,776.94 827.94,686.32 814.77,686.32 			"/>
			<polygon class="st11" points="766.6,776.94 777.55,776.94 793.52,686.32 782.58,686.32 			"/>
			<polygon class="st11" points="734.42,776.94 743.14,776.94 759.11,686.32 750.4,686.32 			"/>
			<polygon class="st11" points="895.36,776.94 915.19,776.94 931.17,686.32 911.33,686.32 			"/>
			<polygon class="st11" points="927.54,776.94 949.6,776.94 965.58,686.32 943.52,686.32 			"/>
			<polygon class="st11" points="991.92,776.94 1018.42,776.94 1034.4,686.32 1007.9,686.32 			"/>
			<polygon class="st11" points="959.73,776.94 984.01,776.94 999.99,686.32 975.71,686.32 			"/>
		</g>
	</g>
</g>
<text transform="matrix(1 0 0 1 404.3535 847.1566)" class="st12 st13">www.mamalive.com.br</text>
</svg>
